<svg xmlns="http://www.w3.org/2000/svg" xmlns:xlink="http://www.w3.org/1999/xlink" viewBox="0,0,256,256" width="100px" height="100px" fill-rule="nonzero"><g fill="#c4c4c4" fill-rule="nonzero" stroke="none" stroke-width="1" stroke-linecap="butt" stroke-linejoin="miter" stroke-miterlimit="10" stroke-dasharray="" stroke-dashoffset="0" font-family="none" font-weight="none" font-size="none" text-anchor="none" style="mix-blend-mode: normal"><path d="M0,256v-256h256v256z" id="bgRectangle"></path></g><g fill="none" fill-rule="nonzero" stroke="none" stroke-width="1" stroke-linecap="butt" stroke-linejoin="miter" stroke-miterlimit="10" stroke-dasharray="" stroke-dashoffset="0" font-family="none" font-weight="none" font-size="none" text-anchor="none" style="mix-blend-mode: normal"><g transform="scale(2.56,2.56)"><path d="M87.215,56.71c1.135,-2.155 1.785,-4.605 1.785,-7.21c0,-6.621 -4.159,-12.257 -10.001,-14.478c0,-0.007 0.001,-0.014 0.001,-0.022c0,-11.598 -9.402,-21 -21,-21c-9.784,0 -17.981,6.701 -20.313,15.757c-1.476,-0.485 -3.049,-0.757 -4.687,-0.757c-7.692,0 -14.023,5.793 -14.89,13.252c-5.204,1.101 -9.11,5.717 -9.11,11.248c0,6.351 5.149,11.5 11.5,11.5c0.177,0 0.352,-0.012 0.526,-0.022c-0.004,0.175 -0.026,0.346 -0.026,0.522c0,11.322 9.178,20.5 20.5,20.5c6.437,0 12.175,-2.972 15.934,-7.614c2.178,2.225 5.206,3.614 8.566,3.614c4.65,0 8.674,-2.65 10.666,-6.518c1.052,0.335 2.171,0.518 3.334,0.518c6.075,0 11,-4.925 11,-11c0,-3.311 -1.47,-6.273 -3.785,-8.29z" fill="#c7ede6"></path><path d="M69,40h-5.75c-2.485,0.75 -4.5,-1.265 -4.5,-3.75c0,-2.333 1.782,-4.229 4.055,-4.455c-0.022,-0.181 -0.055,-0.358 -0.055,-0.545c0,-2.485 2.015,-4.5 4.5,-4.5c1.438,0 2.703,0.686 3.527,1.736c0.14,-2.636 2.302,-4.736 4.973,-4.736c2.761,0 5,2.239 5,5c0,0.446 -0.077,0.87 -0.187,1.282c0.642,-0.777 1.6,-1.282 2.687,-1.282c1.781,0 3.234,1.335 3.455,3.055c0.181,-0.022 0.358,-0.055 0.545,-0.055c2.485,0 4.5,2.015 4.5,4.5c0,2.485 -2.015,4.5 -4.5,3.75h-9.5h-5.75v1h-3z" fill="#fdfcef"></path><path d="M75.5,23c3.033,0 5.5,2.467 5.5,5.5c0,0.016 0,0.031 0,0.047c0.602,-0.355 1.29,-0.547 2,-0.547c1.831,0 3.411,1.261 3.858,3.005c0.047,-0.003 0.094,-0.005 0.142,-0.005c3.099,0 5.549,2.834 4.893,6.047c-0.48,2.351 -2.689,3.953 -5.089,3.953h-14.679c-0.276,0 -0.5,-0.224 -0.5,-0.5c0,-0.276 0.224,-0.5 0.5,-0.5h14.718c1.92,0 3.687,-1.282 4.071,-3.163c0.525,-2.57 -1.435,-4.837 -3.914,-4.837c-0.117,0 -0.23,0.017 -0.343,0.032l-0.141,0.019c-0.021,0.003 -0.041,0.004 -0.062,0.004c-0.246,0 -0.462,-0.185 -0.495,-0.437c-0.191,-1.493 -1.463,-2.618 -2.959,-2.618c-0.885,0 -1.723,0.401 -2.301,1.1c-0.098,0.118 -0.241,0.182 -0.386,0.182c-0.078,0 -0.156,-0.018 -0.228,-0.056c-0.209,-0.107 -0.314,-0.346 -0.254,-0.573c0.16,-0.6 0.202,-1.069 0.147,-1.549c-0.24,-2.127 -1.959,-3.909 -4.092,-4.088c-2.551,-0.215 -4.725,1.728 -4.859,4.246c-0.011,0.208 -0.15,0.387 -0.349,0.45c-0.05,0.016 -0.101,0.024 -0.152,0.024c-0.15,0 -0.296,-0.069 -0.392,-0.192c-0.772,-0.981 -1.913,-1.544 -3.134,-1.544c-2.206,0 -4,1.794 -4,4c0,0.117 0.017,0.23 0.032,0.343l0.019,0.141c0.016,0.134 -0.022,0.268 -0.106,0.373c-0.084,0.105 -0.207,0.172 -0.34,0.185c-2.352,0.234 -4.042,2.429 -3.504,4.865c0.408,1.853 2.174,3.093 4.072,3.093h5.952c0.276,0 0.5,0.224 0.5,0.5c0,0.276 -0.224,0.5 -0.5,0.5h-5.938c-2.467,0 -4.708,-1.704 -5.115,-4.138c-0.462,-2.763 1.344,-5.22 3.931,-5.74c-0.002,-0.04 -0.003,-0.081 -0.003,-0.122c0,-2.757 2.243,-5 5,-5c1.176,0 2.293,0.416 3.183,1.164c0.598,-2.404 2.762,-4.164 5.317,-4.164z" fill="#472b29"></path><path d="M77.25,30.25c1.403,0 2.609,0.999 2.913,2.341c0.367,-0.222 0.786,-0.341 1.212,-0.341c1.202,0 2.198,0.897 2.353,2.068c0.203,-0.045 0.396,-0.068 0.585,-0.068c1.529,0 2.811,1.2 2.918,2.732c0.009,0.138 -0.094,0.257 -0.232,0.267c-0.006,0 -0.012,0 -0.018,0c-0.13,0 -0.24,-0.101 -0.249,-0.232c-0.089,-1.271 -1.151,-2.268 -2.419,-2.268c-0.229,0 -0.47,0.042 -0.738,0.127c-0.022,0.007 -0.045,0.01 -0.067,0.01c-0.055,0 -0.11,-0.02 -0.156,-0.054c-0.064,-0.047 -0.102,-0.129 -0.102,-0.209c0,-1.034 -0.841,-1.875 -1.875,-1.875c-0.447,0 -0.885,0.168 -1.231,0.473c-0.047,0.041 -0.106,0.063 -0.165,0.063c-0.032,0 -0.063,-0.006 -0.093,-0.019c-0.088,-0.035 -0.148,-0.117 -0.155,-0.212c-0.102,-1.292 -1.191,-2.305 -2.479,-2.305c-0.208,0 -0.425,0.034 -0.682,0.107c-0.023,0.007 -0.047,0.01 -0.07,0.01c-0.109,0 -0.207,-0.073 -0.239,-0.182c-0.038,-0.133 0.039,-0.271 0.172,-0.309c0.3,-0.084 0.561,-0.124 0.817,-0.124zM63.367,31.75c1.326,0 2.508,0.897 2.874,2.182c0.038,0.133 -0.039,0.271 -0.172,0.309c-0.023,0.007 -0.046,0.01 -0.068,0.01c-0.109,0 -0.209,-0.072 -0.24,-0.182c-0.305,-1.071 -1.289,-1.818 -2.393,-1.818c-0.117,0 -0.23,0.014 -0.342,0.029c-0.012,0.002 -0.023,0.003 -0.035,0.003c-0.121,0 -0.229,-0.092 -0.246,-0.217c-0.019,-0.137 0.077,-0.263 0.214,-0.281c0.133,-0.019 0.269,-0.035 0.408,-0.035z" fill="#472b29"></path><path d="M48.405,20h-9.905c-0.276,0 -0.5,-0.224 -0.5,-0.5c0,-0.276 0.224,-0.5 0.5,-0.5h9.905c0.276,0 0.5,0.224 0.5,0.5c0,0.276 -0.223,0.5 -0.5,0.5zM51.5,20h-1c-0.276,0 -0.5,-0.224 -0.5,-0.5c0,-0.276 0.224,-0.5 0.5,-0.5h1c0.276,0 0.5,0.224 0.5,0.5c0,0.276 -0.223,0.5 -0.5,0.5zM56.491,22h-8.991c-0.276,0 -0.5,-0.224 -0.5,-0.5c0,-0.276 0.224,-0.5 0.5,-0.5h8.991c0.276,0 0.5,0.224 0.5,0.5c0,0.276 -0.224,0.5 -0.5,0.5zM45.5,22h-1c-0.276,0 -0.5,-0.224 -0.5,-0.5c0,-0.276 0.224,-0.5 0.5,-0.5h1c0.276,0 0.5,0.224 0.5,0.5c0,0.276 -0.223,0.5 -0.5,0.5zM42.5,22h-2c-0.276,0 -0.5,-0.224 -0.5,-0.5c0,-0.276 0.224,-0.5 0.5,-0.5h2c0.276,0 0.5,0.224 0.5,0.5c0,0.276 -0.223,0.5 -0.5,0.5zM48.5,24h-2c-0.276,0 -0.5,-0.224 -0.5,-0.5c0,-0.276 0.224,-0.5 0.5,-0.5h2c0.276,0 0.5,0.224 0.5,0.5c0,0.276 -0.224,0.5 -0.5,0.5zM51.5,15c-0.177,0 -0.823,0 -1,0c-0.276,0 -0.5,0.224 -0.5,0.5c0,0.276 0.224,0.5 0.5,0.5c0.177,0 0.823,0 1,0c0.276,0 0.5,-0.224 0.5,-0.5c0,-0.276 -0.224,-0.5 -0.5,-0.5zM51.5,17c-0.177,0 -4.823,0 -5,0c-0.276,0 -0.5,0.224 -0.5,0.5c0,0.276 0.224,0.5 0.5,0.5c0.177,0 4.823,0 5,0c0.276,0 0.5,-0.224 0.5,-0.5c0,-0.276 -0.224,-0.5 -0.5,-0.5zM56.5,19c-0.177,0 -2.823,0 -3,0c-0.276,0 -0.5,0.224 -0.5,0.5c0,0.276 0.224,0.5 0.5,0.5c0.177,0 2.823,0 3,0c0.276,0 0.5,-0.224 0.5,-0.5c0,-0.276 -0.224,-0.5 -0.5,-0.5zM48,80h-10c-0.276,0 -0.5,-0.224 -0.5,-0.5c0,-0.276 0.224,-0.5 0.5,-0.5h10c0.276,0 0.5,0.224 0.5,0.5c0,0.276 -0.224,0.5 -0.5,0.5zM52,80h-2c-0.276,0 -0.5,-0.224 -0.5,-0.5c0,-0.276 0.224,-0.5 0.5,-0.5h2c0.276,0 0.5,0.224 0.5,0.5c0,0.276 -0.224,0.5 -0.5,0.5zM57,82h-10c-0.276,0 -0.5,-0.224 -0.5,-0.5c0,-0.276 0.224,-0.5 0.5,-0.5h10c0.276,0 0.5,0.224 0.5,0.5c0,0.276 -0.223,0.5 -0.5,0.5zM45,82h-1c-0.276,0 -0.5,-0.224 -0.5,-0.5c0,-0.276 0.224,-0.5 0.5,-0.5h1c0.276,0 0.5,0.224 0.5,0.5c0,0.276 -0.224,0.5 -0.5,0.5zM41.875,82h-1.875c-0.276,0 -0.5,-0.224 -0.5,-0.5c0,-0.276 0.224,-0.5 0.5,-0.5h1.875c0.276,0 0.5,0.224 0.5,0.5c0,0.276 -0.224,0.5 -0.5,0.5zM51,78h-5c-0.276,0 -0.5,-0.224 -0.5,-0.5c0,-0.276 0.224,-0.5 0.5,-0.5h5c0.276,0 0.5,0.224 0.5,0.5c0,0.276 -0.223,0.5 -0.5,0.5zM48,84h-2c-0.276,0 -0.5,-0.224 -0.5,-0.5c0,-0.276 0.224,-0.5 0.5,-0.5h2c0.276,0 0.5,0.224 0.5,0.5c0,0.276 -0.224,0.5 -0.5,0.5z" fill="#ffffff"></path><path d="M46.986,33.601c-0.208,0 -0.415,-0.093 -0.553,-0.27l-5.097,-6.539c-0.237,-0.306 -0.183,-0.745 0.122,-0.982c0.304,-0.238 0.744,-0.185 0.982,0.121l5.097,6.539c0.237,0.306 0.183,0.745 -0.122,0.982c-0.127,0.1 -0.279,0.149 -0.429,0.149zM48.625,33.932c-0.178,0 -0.355,-0.067 -0.492,-0.202c-0.275,-0.271 -0.277,-0.715 -0.006,-0.99l10.598,-10.723c0.271,-0.276 0.714,-0.278 0.99,-0.006c0.275,0.271 0.277,0.715 0.006,0.99l-10.598,10.723c-0.138,0.138 -0.318,0.208 -0.498,0.208z" fill="#472b29"></path><path d="M40.925,35.772c1.222,-2.654 3.72,-4.378 6.47,-4.378c2.75,0 5.248,1.724 6.47,4.378z" fill="#f9e65c"></path><path d="M47.395,32.094c2.115,0 4.067,1.143 5.282,2.978h-10.564c1.215,-1.835 3.167,-2.978 5.282,-2.978M47.395,30.694c-3.463,0 -6.401,2.414 -7.494,5.778h14.988c-1.093,-3.364 -4.031,-5.778 -7.494,-5.778z" fill="#472b29"></path><g><path d="M36.148,74.291c-0.941,0 -1.707,-0.766 -1.707,-1.708v-1.926c0,-0.941 0.766,-1.707 1.707,-1.707c0.941,0 1.708,0.766 1.708,1.707v1.926c-0.001,0.942 -0.767,1.708 -1.708,1.708z" fill="#f9e65c"></path><path d="M36.148,69.65c0.555,0 1.007,0.452 1.007,1.007v1.926c0,0.555 -0.452,1.007 -1.007,1.007c-0.555,0 -1.007,-0.452 -1.007,-1.007v-1.926c0,-0.555 0.452,-1.007 1.007,-1.007M36.148,68.25c-1.33,0 -2.407,1.078 -2.407,2.407v1.926c0,1.33 1.078,2.407 2.407,2.407c1.329,0 2.407,-1.078 2.407,-2.407v-1.926c0.001,-1.329 -1.077,-2.407 -2.407,-2.407z" fill="#472b29"></path></g><g><path d="M66.926,74.291c-0.941,0 -1.707,-0.766 -1.707,-1.708v-1.926c0,-0.941 0.766,-1.707 1.707,-1.707c0.941,0 1.708,0.766 1.708,1.707v1.926c-0.001,0.942 -0.767,1.708 -1.708,1.708z" fill="#f9e65c"></path><path d="M66.926,69.65c0.555,0 1.007,0.452 1.007,1.007v1.926c0,0.555 -0.452,1.007 -1.007,1.007c-0.555,0 -1.007,-0.452 -1.007,-1.007v-1.926c0,-0.555 0.451,-1.007 1.007,-1.007M66.926,68.25v0c-1.33,0 -2.407,1.078 -2.407,2.407v1.926c0,1.33 1.078,2.407 2.407,2.407v0c1.33,0 2.407,-1.078 2.407,-2.407v-1.926c0,-1.329 -1.077,-2.407 -2.407,-2.407z" fill="#472b29"></path></g><g><path d="M29.314,70.438c-1.441,0 -2.614,-1.173 -2.614,-2.614v-30.51c0,-1.441 1.173,-2.614 2.614,-2.614h45.371c1.441,0 2.614,1.173 2.614,2.614v30.51c0,1.441 -1.173,2.614 -2.614,2.614z" fill="#eba272"></path><path d="M74.685,35.4c1.056,0 1.915,0.859 1.915,1.915v30.51c0,1.056 -0.859,1.915 -1.915,1.915h-45.37c-1.056,0 -1.915,-0.859 -1.915,-1.915v-30.51c0,-1.056 0.859,-1.915 1.915,-1.915h45.37M74.685,34h-45.37c-1.831,0 -3.315,1.484 -3.315,3.314v30.51c0,1.831 1.484,3.314 3.315,3.314h45.371c1.831,0 3.315,-1.484 3.315,-3.314v-30.51c-0.001,-1.83 -1.485,-3.314 -3.316,-3.314z" fill="#472b29"></path></g><g fill="#bb7a54"><path d="M76.656,57.657v-19.38c0,-1.71 -0.665,-2.377 -2.387,-2.377h-44.678c-1.28,0 -2.237,0.595 -2.237,2.305l0.01,19.452z"></path></g><g fill="#472b29"><path d="M67.5,58h-41c-0.276,0 -0.5,-0.224 -0.5,-0.5c0,-0.276 0.224,-0.5 0.5,-0.5h41c0.276,0 0.5,0.224 0.5,0.5c0,0.276 -0.224,0.5 -0.5,0.5z"></path></g><g fill="#472b29"><path d="M73.667,63.454h-5.778c-0.276,0 -0.5,-0.224 -0.5,-0.5c0,-0.276 0.224,-0.5 0.5,-0.5h5.778c0.276,0 0.5,0.224 0.5,0.5c0,0.276 -0.224,0.5 -0.5,0.5z"></path></g><g fill="#472b29"><path d="M77.5,58h-4c-0.276,0 -0.5,-0.224 -0.5,-0.5c0,-0.276 0.224,-0.5 0.5,-0.5h4c0.276,0 0.5,0.224 0.5,0.5c0,0.276 -0.224,0.5 -0.5,0.5z"></path></g><g fill="#472b29"><path d="M71.5,58h-2c-0.276,0 -0.5,-0.224 -0.5,-0.5c0,-0.276 0.224,-0.5 0.5,-0.5h2c0.276,0 0.5,0.224 0.5,0.5c0,0.276 -0.224,0.5 -0.5,0.5z"></path></g><g><path d="M70.778,40.805c-1.59555,0 -2.889,1.29345 -2.889,2.889c0,1.59555 1.29345,2.889 2.889,2.889c1.59555,0 2.889,-1.29345 2.889,-2.889c0,-1.59555 -1.29345,-2.889 -2.889,-2.889z" fill="#f9e65c"></path><path d="M70.778,47.083c-1.869,0 -3.389,-1.521 -3.389,-3.389c0,-1.868 1.521,-3.389 3.389,-3.389c1.868,0 3.389,1.521 3.389,3.389c0,1.868 -1.521,3.389 -3.389,3.389zM70.778,41.306c-1.317,0 -2.389,1.071 -2.389,2.389c0,1.318 1.072,2.389 2.389,2.389c1.317,0 2.389,-1.071 2.389,-2.389c0,-1.318 -1.072,-2.389 -2.389,-2.389z" fill="#472b29"></path></g><g><path d="M70.778,49.472c-1.0637,0 -1.926,0.8623 -1.926,1.926c0,1.0637 0.8623,1.926 1.926,1.926c1.0637,0 1.926,-0.8623 1.926,-1.926c0,-1.0637 -0.8623,-1.926 -1.926,-1.926z" fill="#f15b6c"></path><path d="M70.778,53.824c-1.337,0 -2.426,-1.088 -2.426,-2.426c0,-1.338 1.088,-2.426 2.426,-2.426c1.338,0 2.426,1.088 2.426,2.426c0,1.338 -1.089,2.426 -2.426,2.426zM70.778,49.973c-0.786,0 -1.426,0.64 -1.426,1.426c0,0.786 0.64,1.426 1.426,1.426c0.786,0 1.426,-0.64 1.426,-1.426c0,-0.786 -0.64,-1.426 -1.426,-1.426z" fill="#472b29"></path></g><g><path d="M47.881,65.224c-3.409,0 -6.939,-0.188 -10.494,-0.559c-3.427,-0.452 -5.63,-2.643 -5.875,-5.856c-0.316,-3.929 -0.316,-8.268 0,-12.899c0.002,-3.51 2.962,-5.459 5.896,-5.854c3.492,-0.313 7.008,-0.475 10.421,-0.475c3.411,0 6.816,0.16 10.122,0.479c3.418,0.413 5.729,2.704 5.868,5.834c0.212,4.399 0.212,8.75 0,12.934c-0.132,2.979 -2.35,5.163 -5.932,5.848c-3.215,0.36 -6.599,0.548 -10.006,0.548z" fill="#78cdd4"></path><path d="M47.828,40.28v0c3.388,0 6.772,0.16 10.022,0.472c3.125,0.377 5.144,2.359 5.269,5.177c0.211,4.374 0.211,8.701 0,12.871c-0.167,3.749 -3.73,4.866 -5.313,5.177c-3.226,0.363 -6.566,0.547 -9.927,0.547c-3.384,0 -6.89,-0.187 -10.382,-0.551c-3.139,-0.414 -5.066,-2.316 -5.288,-5.224c-0.313,-3.891 -0.313,-8.194 0.001,-12.792l0.003,-0.048v-0.048c0,-3.028 2.636,-4.745 5.258,-5.108c3.491,-0.314 6.975,-0.473 10.357,-0.473M47.827,38.879c-3.477,0 -6.982,0.164 -10.513,0.482c-3.571,0.481 -6.5,2.91 -6.5,6.5c-0.308,4.503 -0.334,8.851 0,13c0.281,3.691 2.849,6.018 6.5,6.5c3.557,0.371 7.078,0.563 10.565,0.563c3.415,0 6.796,-0.184 10.139,-0.563c3.571,-0.682 6.34,-2.889 6.5,-6.5c0.214,-4.227 0.214,-8.56 0,-13c-0.16,-3.611 -2.849,-6.059 -6.5,-6.5c-3.37,-0.323 -6.767,-0.482 -10.191,-0.482z" fill="#472b29"></path></g><g fill="#472b29"><path d="M33.782,57.548c-0.128,0 -0.237,-0.099 -0.249,-0.229c-0.265,-3.041 -0.265,-6.396 0,-9.975c0.01,-0.137 0.125,-0.256 0.268,-0.23c0.138,0.01 0.241,0.13 0.231,0.268c-0.263,3.551 -0.263,6.88 0,9.895c0.012,0.138 -0.09,0.259 -0.228,0.271c-0.008,0 -0.015,0 -0.022,0z"></path></g><g fill="#472b29"><path d="M50.333,62.92c-0.136,0 -0.247,-0.108 -0.25,-0.245c-0.003,-0.138 0.106,-0.252 0.245,-0.255c1.403,-0.029 2.757,-0.085 4.025,-0.165c0.144,-0.004 0.256,0.097 0.265,0.234c0.009,0.137 -0.096,0.257 -0.234,0.265c-1.274,0.08 -2.636,0.136 -4.045,0.166c-0.003,0 -0.005,0 -0.006,0z"></path></g><g fill="#472b29"><path d="M57.292,62.515c-0.119,0 -0.224,-0.085 -0.246,-0.206c-0.024,-0.137 0.066,-0.266 0.203,-0.29c2.714,-0.48 3.984,-1.941 4.119,-4.739c0.175,-3.212 0.175,-6.551 0,-9.925c-0.141,-2.936 -1.445,-4.441 -4.104,-4.739c-2.541,-0.226 -5.603,-0.353 -8.849,-0.365c-0.138,-0.001 -0.25,-0.113 -0.249,-0.251c0,-0.139 0.093,-0.249 0.251,-0.249c3.26,0.013 6.336,0.141 8.897,0.368c2.913,0.326 4.4,2.031 4.553,5.212c0.176,3.39 0.176,6.746 0,9.975c-0.146,3.03 -1.585,4.686 -4.531,5.206c-0.015,0.002 -0.029,0.003 -0.044,0.003z"></path></g><g fill="#472b29"><path d="M45.082,42.306c-0.136,0 -0.247,-0.108 -0.25,-0.245c-0.003,-0.138 0.107,-0.252 0.245,-0.255c0.63,-0.013 1.265,-0.021 1.9,-0.024h0.001c0.137,0 0.249,0.111 0.25,0.248c0.001,0.139 -0.11,0.251 -0.249,0.252c-0.633,0.004 -1.265,0.012 -1.894,0.024c0,0 -0.002,0 -0.003,0z"></path></g><g fill="#472b29"><path d="M38.107,42.646c-0.128,0 -0.238,-0.099 -0.249,-0.229c-0.012,-0.137 0.09,-0.258 0.228,-0.27c0.817,-0.068 1.673,-0.127 2.558,-0.178c0.91,-0.05 1.849,-0.091 2.804,-0.122c0.153,0.021 0.254,0.104 0.258,0.242c0.004,0.138 -0.104,0.253 -0.242,0.258c-0.952,0.031 -1.887,0.072 -2.793,0.122c-0.879,0.049 -1.732,0.107 -2.544,0.176c-0.006,0.001 -0.013,0.001 -0.02,0.001z"></path></g><g><path d="M22.25,60.5c0,0 -1.567,0 -3.5,0c-1.933,0 -3.5,-1.567 -3.5,-3.5c0,-1.781 1.335,-3.234 3.055,-3.455c-0.028,-0.179 -0.055,-0.358 -0.055,-0.545c0,-1.933 1.567,-3.5 3.5,-3.5c1.032,0 1.95,0.455 2.59,1.165c0.384,-1.808 1.987,-3.165 3.91,-3.165c2.209,0 4,1.791 4,4c0,0.191 -0.03,0.374 -0.056,0.558c0.428,-0.344 0.965,-0.558 1.556,-0.558c1.228,0 2.245,0.887 2.455,2.055c0.179,-0.028 0.358,-0.055 0.545,-0.055c1.933,0 3.5,1.567 3.5,3.5c0,1.933 -1.567,3.5 -3.5,3.5c-1.933,0 -7.5,0 -7.5,0v0.5h-7z" fill="#fdfcef"></path><path d="M20.5,56c0.138,0 0.25,-0.112 0.25,-0.25c0,-1.223 -0.995,-2.218 -2.218,-2.218c-0.034,0.009 -0.737,-0.001 -1.244,0.136c-0.133,0.036 -0.212,0.173 -0.176,0.306c0.036,0.134 0.173,0.213 0.306,0.176c0.444,-0.12 1.1,-0.12 1.113,-0.118c0.948,0 1.719,0.771 1.719,1.718c0,0.138 0.112,0.25 0.25,0.25zM27.25,60c-0.27614,0 -0.5,0.22386 -0.5,0.5c0,0.27614 0.22386,0.5 0.5,0.5c0.27614,0 0.5,-0.22386 0.5,-0.5c0,-0.27614 -0.22386,-0.5 -0.5,-0.5z" fill="#472b29"></path><path d="M18.75,61h3.5c0.276,0 0.5,-0.224 0.5,-0.5c0,-0.276 -0.224,-0.5 -0.5,-0.5h-3.5c-1.654,0 -3,-1.346 -3,-3c0,-1.496 1.125,-2.768 2.618,-2.959c0.134,-0.018 0.255,-0.088 0.336,-0.196c0.081,-0.108 0.115,-0.244 0.094,-0.377c-0.023,-0.154 -0.048,-0.308 -0.048,-0.468c0,-1.654 1.346,-3 3,-3c0.85,0 1.638,0.355 2.219,1c0.125,0.139 0.321,0.198 0.5,0.148c0.182,-0.049 0.321,-0.195 0.36,-0.379c0.341,-1.604 1.78,-2.769 3.421,-2.769c1.93,0 3.5,1.57 3.5,3.5c0,0.143 -0.021,0.28 -0.041,0.418c-0.029,0.203 0.063,0.438 0.242,0.54c0.179,0.102 0.396,0.118 0.556,-0.01c0.365,-0.293 0.794,-0.448 1.243,-0.448c0.966,0 1.792,0.691 1.963,1.644c0.048,0.267 0.296,0.446 0.569,0.405c0.154,-0.024 0.308,-0.049 0.468,-0.049c1.654,0 3,1.346 3,3c0,1.654 -1.346,3 -3,3h-7.5c-0.276,0 -0.5,0.224 -0.5,0.5c0,0.276 0.224,0.5 0.5,0.5h7.5c2.206,0 4,-1.794 4,-4c0,-2.206 -1.794,-4 -4,-4c-0.059,0 -0.116,0.002 -0.174,0.006c-0.414,-1.186 -1.537,-2.006 -2.826,-2.006c-0.349,0 -0.689,0.061 -1.011,0.18c-0.165,-2.333 -2.115,-4.18 -4.489,-4.18c-1.831,0 -3.466,1.127 -4.153,2.774c-0.68,-0.498 -1.502,-0.774 -2.347,-0.774c-2.206,0 -4,1.794 -4,4c0,0.048 0.001,0.095 0.004,0.142c-1.743,0.448 -3.004,2.027 -3.004,3.858c0,2.206 1.794,4 4,4z" fill="#472b29"></path><path d="M24.25,60c0.159,0 0.841,0 1,0c0.276,0 0.5,0.224 0.5,0.5c0,0.276 -0.224,0.5 -0.5,0.5c-0.159,0 -0.841,0 -1,0c-0.276,0 -0.5,-0.224 -0.5,-0.5c0,-0.276 0.224,-0.5 0.5,-0.5z" fill="#472b29"></path></g></g></g></svg>