<svg xmlns="http://www.w3.org/2000/svg" xmlns:xlink="http://www.w3.org/1999/xlink" viewBox="0,0,256,256" width="48px" height="48px" fill-rule="nonzero"><g fill="#c4c4c4" fill-rule="nonzero" stroke="none" stroke-width="1" stroke-linecap="butt" stroke-linejoin="miter" stroke-miterlimit="10" stroke-dasharray="" stroke-dashoffset="0" font-family="none" font-weight="none" font-size="none" text-anchor="none" style="mix-blend-mode: normal"><path d="M0,256v-256h256v256z" id="bgRectangle"></path></g><g fill="none" fill-rule="nonzero" stroke="none" stroke-width="1" stroke-linecap="butt" stroke-linejoin="miter" stroke-miterlimit="10" stroke-dasharray="" stroke-dashoffset="0" font-family="none" font-weight="none" font-size="none" text-anchor="none" style="mix-blend-mode: normal"><g transform="scale(5.33333,5.33333)"><path d="M40,40c-6.9,0 -16,4 -16,4v-22c0,0 9,-4 18,-4z" fill="#5c6bc0"></path><path d="M8,40c6.9,0 16,4 16,4v-22c0,0 -9,-4 -18,-4z" fill="#7986cb"></path><path d="M24,4c-4.41828,0 -8,3.58172 -8,8c0,4.41828 3.58172,8 8,8c4.41828,0 8,-3.58172 8,-8c0,-4.41828 -3.58172,-8 -8,-8zM41,32h1c0.6,0 1,-0.4 1,-1v-4c0,-0.6 -0.4,-1 -1,-1h-1c-1.7,0 -3,1.3 -3,3v0c0,1.7 1.3,3 3,3zM7,26h-1c-0.6,0 -1,0.4 -1,1v4c0,0.6 0.4,1 1,1h1c1.7,0 3,-1.3 3,-3v0c0,-1.7 -1.3,-3 -3,-3z" fill="#ffb74d"></path></g></g></svg>