<svg xmlns="http://www.w3.org/2000/svg" xmlns:xlink="http://www.w3.org/1999/xlink" viewBox="0,0,256,256" width="100px" height="100px" fill-rule="nonzero"><g fill="#c4c4c4" fill-rule="nonzero" stroke="none" stroke-width="1" stroke-linecap="butt" stroke-linejoin="miter" stroke-miterlimit="10" stroke-dasharray="" stroke-dashoffset="0" font-family="none" font-weight="none" font-size="none" text-anchor="none" style="mix-blend-mode: normal"><path d="M0,256v-256h256v256z" id="bgRectangle"></path></g><g fill="none" fill-rule="nonzero" stroke="none" stroke-width="1" stroke-linecap="butt" stroke-linejoin="miter" stroke-miterlimit="10" stroke-dasharray="" stroke-dashoffset="0" font-family="none" font-weight="none" font-size="none" text-anchor="none" style="mix-blend-mode: normal"><g transform="scale(2.56,2.56)"><path d="M13,27c-1.10457,0 -2,0.89543 -2,2c0,1.10457 0.89543,2 2,2c1.10457,0 2,-0.89543 2,-2c0,-1.10457 -0.89543,-2 -2,-2z" fill="#ee3e54"></path><path d="M77,12c-0.55228,0 -1,0.44772 -1,1c0,0.55228 0.44772,1 1,1c0.55228,0 1,-0.44772 1,-1c0,-0.55228 -0.44772,-1 -1,-1z" fill="#f1bc19"></path><path d="M50,13c-20.43454,0 -37,16.56546 -37,37c0,20.43454 16.56546,37 37,37c20.43454,0 37,-16.56546 37,-37c0,-20.43454 -16.56546,-37 -37,-37z" fill="#fce0a2"></path><path d="M83,11c-2.20914,0 -4,1.79086 -4,4c0,2.20914 1.79086,4 4,4c2.20914,0 4,-1.79086 4,-4c0,-2.20914 -1.79086,-4 -4,-4z" fill="#f1bc19"></path><path d="M87,22c-1.10457,0 -2,0.89543 -2,2c0,1.10457 0.89543,2 2,2c1.10457,0 2,-0.89543 2,-2c0,-1.10457 -0.89543,-2 -2,-2z" fill="#ee3e54"></path><path d="M81,74c-1.10457,0 -2,0.89543 -2,2c0,1.10457 0.89543,2 2,2c1.10457,0 2,-0.89543 2,-2c0,-1.10457 -0.89543,-2 -2,-2zM15,59c-2.20914,0 -4,1.79086 -4,4c0,2.20914 1.79086,4 4,4c2.20914,0 4,-1.79086 4,-4c0,-2.20914 -1.79086,-4 -4,-4z" fill="#fbcd59"></path><path d="M25,85c-1.10457,0 -2,0.89543 -2,2c0,1.10457 0.89543,2 2,2c1.10457,0 2,-0.89543 2,-2c0,-1.10457 -0.89543,-2 -2,-2z" fill="#ee3e54"></path><path d="M18.5,51c-1.38071,0 -2.5,1.11929 -2.5,2.5c0,1.38071 1.11929,2.5 2.5,2.5c1.38071,0 2.5,-1.11929 2.5,-2.5c0,-1.38071 -1.11929,-2.5 -2.5,-2.5z" fill="#ffffff"></path><path d="M21,66c-0.55228,0 -1,0.44772 -1,1c0,0.55228 0.44772,1 1,1c0.55228,0 1,-0.44772 1,-1c0,-0.55228 -0.44772,-1 -1,-1z" fill="#f1bc19"></path><path d="M80,33c-0.55228,0 -1,0.44772 -1,1c0,0.55228 0.44772,1 1,1c0.55228,0 1,-0.44772 1,-1c0,-0.55228 -0.44772,-1 -1,-1z" fill="#ffffff"></path><g><path d="M31.012,34.634c0.155,0.49 0.579,0.862 1.05,1.094c0.045,0.022 0.09,0.039 0.136,0.056c-0.013,0.034 -0.029,0.066 -0.041,0.101c-0.162,0.304 -0.236,0.63 -0.221,0.977v0.188c0.005,0.473 0.136,0.913 0.393,1.32c0.143,0.169 0.286,0.338 0.429,0.506c-0.073,0.06 -0.144,0.125 -0.21,0.196c-0.258,0.241 -0.435,0.521 -0.532,0.841c-0.151,0.298 -0.217,0.614 -0.195,0.95v0.188c0.014,0.458 0.149,0.882 0.407,1.273c0.155,0.176 0.309,0.351 0.464,0.527c0.108,0.092 0.222,0.172 0.34,0.246c-0.072,0.048 -0.144,0.096 -0.216,0.144c-0.443,0.354 -0.652,0.899 -0.701,1.426c-0.025,0.282 0.026,0.549 0.153,0.799c0.08,0.273 0.23,0.512 0.451,0.716c0.197,0.209 0.433,0.36 0.708,0.452c0.253,0.132 0.527,0.199 0.823,0.202h0.202c0.021,0.001 0.04,-0.002 0.061,-0.001c-0.285,0.516 -0.424,1.095 -0.361,1.626c0.181,1.52 1.502,2.373 3.002,2.491c-0.011,0.08 -0.025,0.16 -0.03,0.243c-0.087,1.596 1.342,3.22 3.122,3.22c0.474,0 0.932,-0.085 1.352,-0.24c0.376,1.161 1.591,1.825 2.904,1.825c0.405,0 0.782,-0.112 1.116,-0.296c0.005,0.01 0.009,0.021 0.015,0.032c0.114,0.153 0.229,0.306 0.343,0.46c0.388,0.434 0.99,0.646 1.576,0.704c0.321,0.029 0.626,-0.018 0.913,-0.141c0.299,-0.072 0.561,-0.211 0.786,-0.417c0.158,-0.125 0.285,-0.269 0.386,-0.429c0.1,0.16 0.227,0.304 0.386,0.429c0.225,0.206 0.487,0.345 0.786,0.417c0.287,0.122 0.591,0.169 0.913,0.141c0.586,-0.057 1.188,-0.27 1.576,-0.704c0.114,-0.153 0.229,-0.306 0.343,-0.46c0.006,-0.01 0.009,-0.021 0.015,-0.032c0.333,0.184 0.71,0.296 1.115,0.296c1.313,0 2.528,-0.664 2.905,-1.824c0.421,0.154 0.879,0.24 1.352,0.24c1.78,0 3.209,-1.625 3.122,-3.22c-0.005,-0.083 -0.018,-0.162 -0.03,-0.243c1.5,-0.118 2.821,-0.971 3.002,-2.491c0.063,-0.531 -0.076,-1.111 -0.361,-1.626c0.02,0 0.04,0.002 0.061,0.001h0.202c0.296,-0.003 0.57,-0.07 0.823,-0.202c0.275,-0.092 0.511,-0.243 0.708,-0.452c0.221,-0.204 0.371,-0.443 0.451,-0.716c0.127,-0.251 0.178,-0.517 0.153,-0.799c-0.049,-0.526 -0.258,-1.071 -0.701,-1.426c-0.072,-0.048 -0.144,-0.096 -0.216,-0.144c0.118,-0.074 0.233,-0.154 0.34,-0.246c0.155,-0.176 0.309,-0.351 0.464,-0.527c0.257,-0.391 0.393,-0.815 0.407,-1.273v-0.188c0.021,-0.336 -0.044,-0.652 -0.195,-0.95c-0.097,-0.32 -0.275,-0.6 -0.532,-0.841c-0.066,-0.071 -0.136,-0.136 -0.21,-0.196c0.143,-0.169 0.286,-0.338 0.429,-0.506c0.258,-0.408 0.389,-0.848 0.393,-1.32v-0.188c0.015,-0.347 -0.059,-0.672 -0.221,-0.977c-0.011,-0.035 -0.027,-0.067 -0.041,-0.101c0.046,-0.017 0.091,-0.035 0.136,-0.056c0.47,-0.232 0.895,-0.605 1.05,-1.094c0.148,-0.467 0.154,-0.976 -0.085,-1.421c-0.067,-0.126 -0.135,-0.251 -0.202,-0.377c-0.238,-0.444 -0.667,-0.816 -1.175,-0.978c-0.21,-0.075 -0.424,-0.104 -0.642,-0.092c-0.034,-0.139 -0.088,-0.272 -0.169,-0.396c-0.09,-0.217 -0.235,-0.4 -0.434,-0.55c-0.182,-0.158 -0.39,-0.265 -0.626,-0.321c-0.225,-0.093 -0.462,-0.128 -0.712,-0.107c-0.055,0.005 -0.11,0.013 -0.165,0.021c0.215,-0.332 0.342,-0.703 0.342,-1.107v-0.188c0.01,-0.298 -0.058,-0.575 -0.206,-0.832c-0.095,-0.271 -0.259,-0.503 -0.492,-0.698c-0.211,-0.204 -0.458,-0.348 -0.743,-0.43c-0.268,-0.127 -0.556,-0.185 -0.863,-0.174c-0.203,0.026 -0.407,0.053 -0.61,0.079c-0.061,0.016 -0.118,0.038 -0.177,0.058c-0.011,-0.187 -0.049,-0.37 -0.122,-0.548c-0.066,-0.313 -0.211,-0.595 -0.436,-0.846c-0.21,-0.272 -0.475,-0.476 -0.796,-0.612c-0.297,-0.19 -0.629,-0.298 -0.996,-0.324c-0.228,0.004 -0.457,0.008 -0.685,0.012c-0.196,0.028 -0.382,0.078 -0.561,0.143c-0.072,-0.143 -0.164,-0.278 -0.281,-0.402c-0.188,-0.23 -0.421,-0.401 -0.699,-0.515c-0.262,-0.161 -0.553,-0.25 -0.874,-0.268c-0.208,0.007 -0.416,0.014 -0.624,0.021c-0.285,0.047 -0.547,0.14 -0.789,0.274c-0.524,-0.804 -1.44,-1.385 -2.742,-1.385c-0.876,0 -1.56,0.264 -2.062,0.68c-0.502,-0.415 -1.185,-0.68 -2.062,-0.68c-1.301,0 -2.218,0.582 -2.742,1.385c-0.242,-0.134 -0.504,-0.227 -0.789,-0.274c-0.208,-0.007 -0.416,-0.014 -0.624,-0.021c-0.32,0.018 -0.612,0.107 -0.874,0.268c-0.278,0.113 -0.511,0.285 -0.699,0.515c-0.118,0.124 -0.209,0.258 -0.281,0.402c-0.179,-0.064 -0.365,-0.115 -0.561,-0.143c-0.229,-0.004 -0.457,-0.008 -0.685,-0.012c-0.367,0.026 -0.699,0.134 -0.996,0.324c-0.321,0.136 -0.586,0.339 -0.796,0.612c-0.224,0.25 -0.37,0.532 -0.436,0.846c-0.072,0.178 -0.11,0.361 -0.122,0.548c-0.058,-0.02 -0.116,-0.042 -0.177,-0.058c-0.203,-0.026 -0.407,-0.053 -0.61,-0.079c-0.307,-0.011 -0.594,0.047 -0.863,0.174c-0.284,0.083 -0.532,0.226 -0.743,0.43c-0.232,0.195 -0.396,0.427 -0.492,0.698c-0.148,0.257 -0.216,0.534 -0.206,0.832v0.188c0,0.403 0.127,0.775 0.342,1.107c-0.055,-0.009 -0.11,-0.016 -0.165,-0.021c-0.25,-0.021 -0.487,0.014 -0.712,0.107c-0.236,0.056 -0.445,0.163 -0.626,0.321c-0.199,0.149 -0.343,0.333 -0.434,0.55c-0.081,0.124 -0.135,0.257 -0.169,0.396c-0.217,-0.011 -0.431,0.018 -0.642,0.092c-0.508,0.162 -0.936,0.534 -1.175,0.978c-0.067,0.126 -0.135,0.251 -0.202,0.377c-0.237,0.444 -0.231,0.953 -0.083,1.42z" fill="#472b29"></path><path d="M61.659,41.175c0.131,-1.518 -0.322,-2.821 -0.224,-3.575c-0.002,-0.002 -0.004,-0.002 -0.006,-0.004c-1.333,-1.647 -2.172,-3.593 -4.009,-4.767c-2.018,-1.29 -4.46,-2.244 -6.78,-2.828c-5.699,-1.434 -11.304,2.738 -13.066,8.127c-0.013,0.041 -0.038,0.068 -0.057,0.101c0.212,1.203 0.375,2.333 0.372,2.94c-1.541,-0.03 -2.325,0.811 -1.794,2.431c0.007,0.023 0.598,2.632 0.995,3.883c0.267,0.841 0.756,1.177 1.478,1.208c0.007,0.835 0.009,1.669 -0.027,2.502c-0.045,1.048 0.271,1.962 0.859,2.814c1.503,2.176 9.226,7.201 11.094,7.016c3.03,0.005 9.017,-5.141 10.589,-7.7c0.261,-0.425 0.466,-1.19 0.471,-1.688c0.01,-0.988 0.01,-1.976 0.012,-2.963c0.608,-0.085 1.029,-0.432 1.269,-1.19c0.397,-1.251 0.988,-3.86 0.995,-3.883c0.533,-1.619 -0.63,-2.454 -2.171,-2.424z" fill="#a3754f"></path><path d="M49.746,27.156c-6.851,0 -12.405,5.056 -12.405,11.292c0,0.668 0.41,1.817 0.436,1.719c1.513,-5.542 8.434,-8.191 11.972,-8.191c3.538,0 10.387,2.3 11.972,8.191c0.026,0.097 0.429,-1.052 0.429,-1.719c0.001,-6.236 -5.553,-11.292 -12.404,-11.292z" fill="#f1bc19"></path><path d="M66.275,66.745c-0.088,-0.027 -0.206,-0.071 -0.34,-0.123c-0.154,-0.068 -0.348,-0.148 -0.576,-0.238c-1.229,-0.528 -9.263,-3.267 -9.263,-3.267c-0.602,-0.155 -0.993,-0.591 -1.22,-1.082c-0.374,-0.811 -0.229,-2.914 -0.229,-2.914c0,0 -2.321,1.062 -4.225,1.424c-1.868,0.185 -5.152,-2.272 -5.152,-2.272c0,0 -0.094,3.037 -0.221,3.712c-0.1,0.53 -0.661,0.978 -1.263,1.133l-7.741,2.582c-0.775,0.206 -1.519,0.5 -2.173,0.911c-1.986,1.246 -2.882,3.207 -3.274,4.681c-0.017,-0.002 -0.033,-0.002 -0.05,-0.004c-0.025,0.103 -0.056,0.321 -0.09,0.607c-0.141,0.715 -0.158,1.227 -0.139,1.346c-0.044,0.464 -0.089,6.975 -0.134,7.512c7.564,4.32 13.721,5.471 24.255,5.471c4.625,0 11.56,-3.848 15.649,-5.383c-0.438,-9.376 0.447,-12.787 -3.814,-14.096z" fill="#895f3f"></path><g fill="#f4989e" opacity="0.3"><path d="M42.877,47.846c-1.08579,0 -1.966,0.89364 -1.966,1.996c0,1.10236 0.88021,1.996 1.966,1.996c1.08579,0 1.966,-0.89364 1.966,-1.996c0,-1.10236 -0.88021,-1.996 -1.966,-1.996zM57.998,47.846c-1.08579,0 -1.966,0.89364 -1.966,1.996c0,1.10236 0.88021,1.996 1.966,1.996c1.08579,0 1.966,-0.89364 1.966,-1.996c0,-1.10236 -0.88021,-1.996 -1.966,-1.996z" opacity="0.8"></path></g><path d="M38.852,49.409c-0.102,0 -0.188,-0.077 -0.199,-0.18l-0.823,-8.044c-0.011,-0.11 0.069,-0.208 0.179,-0.22c0.108,-0.001 0.209,0.069 0.22,0.179l0.823,8.044c0.011,0.11 -0.069,0.208 -0.179,0.22c-0.008,0 -0.015,0.001 -0.021,0.001zM61.353,48.975c-0.004,0 -0.008,0 -0.012,-0.001c-0.11,-0.006 -0.194,-0.102 -0.188,-0.211l0.491,-8.071c0.006,-0.11 0.097,-0.218 0.211,-0.188c0.11,0.006 0.194,0.102 0.188,0.211l-0.491,8.071c-0.006,0.107 -0.094,0.189 -0.199,0.189z" fill="#472b29"></path><path d="M46.829,53.918c-0.04,0.155 -0.063,0.314 -0.063,0.477c0,1.397 1.545,2.529 3.451,2.529c1.906,0 3.451,-1.132 3.451,-2.529c0,-0.163 -0.023,-0.322 -0.063,-0.477z" fill="#6d1b18"></path><path d="M52.04,56.534c-0.303,-0.354 -1.005,-0.602 -1.823,-0.602c-0.818,0 -1.52,0.248 -1.823,0.602c0.53,0.243 1.152,0.39 1.823,0.39c0.671,0 1.293,-0.147 1.823,-0.39z" fill="#ee3e54"></path><path d="M47.817,53.918c-0.002,0.015 -0.007,0.029 -0.007,0.044v0.427c0,0.374 0.493,0.68 1.095,0.68h2.623c0.602,0 1.095,-0.306 1.095,-0.68v-0.427c0,-0.015 -0.006,-0.03 -0.007,-0.044z" fill="#fdfcef"></path><path d="M50.217,57.124c-2.014,0 -3.651,-1.225 -3.651,-2.729c0,-0.174 0.023,-0.351 0.069,-0.526c0.022,-0.089 0.103,-0.15 0.193,-0.15h6.776c0.091,0 0.171,0.062 0.193,0.15c0.047,0.179 0.07,0.355 0.07,0.526c0.001,1.504 -1.637,2.729 -3.65,2.729zM46.989,54.118c-0.016,0.093 -0.023,0.186 -0.023,0.276c0,1.284 1.458,2.329 3.251,2.329c1.793,0 3.251,-1.045 3.251,-2.329c0,-0.09 -0.008,-0.183 -0.024,-0.276z" fill="#472b29"></path><path d="M41.263,63.959c-0.214,9.025 17.407,9.569 16.182,-0.667l4.881,1.695l1.479,19.172c0,0 -15.17,5.747 -28.409,-0.843l0.649,-17.616z" fill="#88ae45"></path><path d="M50.217,52.042c0.77,0 1.518,-0.336 1.999,-0.9c0.048,-0.057 0.042,-0.142 -0.014,-0.191v0c-0.056,-0.048 -0.141,-0.043 -0.191,0.013c-0.392,0.448 -1.046,0.705 -1.793,0.705c-0.748,0 -1.402,-0.257 -1.794,-0.705c-0.027,-0.031 -0.064,-0.046 -0.102,-0.046c-0.031,0 -0.063,0.011 -0.089,0.033c-0.056,0.049 -0.063,0.134 -0.014,0.191c0.48,0.564 1.227,0.9 1.998,0.9zM51.104,58.768c0.043,0 0.079,-0.041 0.079,-0.089c0,-0.048 -0.036,-0.089 -0.079,-0.089h-1.776c-0.043,0 -0.079,0.041 -0.079,0.089c0,0.048 0.036,0.089 0.079,0.089z" fill="#472b29" opacity="0.41"></path><path d="M48.171,39.997c-1.976,-0.674 -5.377,-0.997 -7.422,-0.778c-0.116,0.013 -0.203,0.091 -0.207,0.188c-0.004,0.096 0.076,0.183 0.19,0.206c0.041,0.008 5.075,0.877 6.643,1.43c0.027,0.009 0.054,0.015 0.082,0.016c0.079,0.004 0.158,-0.024 0.207,-0.078l0.615,-0.677c0.045,-0.049 0.059,-0.114 0.038,-0.174c-0.022,-0.06 -0.075,-0.109 -0.146,-0.133zM52.17,39.801c2.008,-0.57 5.421,-0.716 7.452,-0.39c0.115,0.019 0.198,0.102 0.197,0.199c-0.001,0.096 -0.085,0.179 -0.201,0.196c-0.041,0.006 -5.114,0.611 -6.709,1.083c-0.027,0.008 -0.055,0.012 -0.082,0.012c-0.08,0 -0.156,-0.032 -0.203,-0.089l-0.579,-0.709c-0.042,-0.052 -0.053,-0.117 -0.029,-0.176c0.026,-0.059 0.083,-0.105 0.154,-0.126z" fill="#512c2b"></path><g fill="#472b29"><path d="M44.622,42.071c-0.505,0 -0.948,0.33 -1.205,0.828c0.064,-0.02 0.13,-0.033 0.199,-0.033c0.414,0 0.75,0.37 0.75,0.827c0,0.457 -0.336,0.827 -0.75,0.827c-0.136,0 -0.261,-0.043 -0.371,-0.112c0.177,0.749 0.726,1.295 1.376,1.295c0.793,0 1.437,-0.813 1.437,-1.816c0.001,-1.003 -0.642,-1.816 -1.436,-1.816zM55.615,42.071c-0.431,0 -0.817,0.241 -1.08,0.621c0.082,-0.034 0.171,-0.055 0.264,-0.055c0.414,0 0.75,0.37 0.75,0.827c0,0.457 -0.336,0.827 -0.75,0.827c-0.257,0 -0.483,-0.143 -0.618,-0.36c0.019,0.982 0.653,1.772 1.435,1.772c0.793,0 1.437,-0.813 1.437,-1.816c-0.001,-1.003 -0.644,-1.816 -1.438,-1.816z"></path></g><g fill="#472b29"><path d="M50.564,60.717c-1.907,0 -5.011,-1.673 -5.147,-1.747c-0.121,-0.066 -0.166,-0.218 -0.101,-0.339c0.065,-0.121 0.217,-0.166 0.339,-0.101c0.033,0.019 3.369,1.841 5.107,1.679c1.746,-0.146 4.293,-1.588 4.318,-1.602c0.119,-0.069 0.272,-0.027 0.341,0.093c0.069,0.12 0.027,0.272 -0.093,0.341c-0.108,0.063 -2.67,1.511 -4.525,1.666c-0.076,0.007 -0.157,0.01 -0.239,0.01z"></path></g><g fill="#88ae45"><path d="M48.505,41.633c-2.247,-2.739 -10.72,-0.796 -10.729,-0.798c0.156,0.619 0.29,1.23 0.413,1.834c0.629,0.065 0.666,1.478 0.729,1.995c0.305,2.498 1.976,4.338 5.494,4.251c3.526,-0.183 4.35,-2.735 4.495,-4.342c0.158,-1.753 -0.403,-2.935 -0.402,-2.94zM48.103,44.7c-0.181,2.238 -1.555,3.548 -3.777,3.656c-0.225,0.012 -0.444,0.014 -0.652,0.005c-3.501,-0.006 -4.1,-3.07 -4.169,-5.008c-0.045,-1.109 0.748,-2.059 1.865,-2.169c0.643,-0.063 1.366,-0.063 2.202,-0.063c2.616,0 3.755,0.624 4.058,1.125c0.177,0.297 0.574,1.239 0.473,2.454zM50.986,44.573c0.145,1.606 0.969,4.158 4.495,4.342c3.518,0.087 5.189,-1.754 5.494,-4.251c0.062,-0.517 0.1,-1.93 0.729,-1.995c0.122,-0.604 0.257,-1.215 0.413,-1.834c-0.009,0.002 -8.481,-1.941 -10.729,0.798c0,0.005 -0.561,1.187 -0.402,2.94zM52.263,42.245c0.303,-0.501 1.442,-1.125 4.058,-1.125c0.836,0 1.559,0 2.202,0.063c1.118,0.11 1.91,1.06 1.865,2.169c-0.069,1.938 -0.668,5.002 -4.169,5.008c-0.208,0.009 -0.428,0.007 -0.652,-0.005c-2.222,-0.108 -3.596,-1.418 -3.777,-3.656c-0.102,-1.214 0.295,-2.156 0.473,-2.454z"></path><g><path d="M51.466,43.785c-0.001,-0.001 -0.575,-0.453 -1.579,-0.453c-0.941,0 -1.46,0.453 -1.46,0.453c-0.154,-0.425 -0.307,-0.848 -0.462,-1.272c1.321,0.001 2.642,0.001 3.963,0c-0.155,0.423 -0.309,0.847 -0.462,1.272z"></path></g></g><g fill="#472b29"><path d="M50.393,86.94c-7.265,0 -14.334,-2.069 -20.442,-5.984c-0.14,-0.089 -0.226,-0.241 -0.23,-0.406l-0.004,-0.127c-0.235,-7.898 1.101,-12.645 3.971,-14.104c0.632,-0.321 1.418,-0.722 2.271,-0.948l7.709,-2.574c0.479,-0.125 0.873,-0.45 0.93,-0.751c0.063,-0.331 0.154,-1.407 0.248,-2.906c-2.308,-1.454 -4.938,-3.423 -5.814,-4.693c-0.686,-0.992 -0.995,-2.013 -0.948,-3.12c0.03,-0.681 0.034,-1.363 0.03,-2.045c-0.715,-0.169 -1.193,-0.661 -1.458,-1.493c-0.231,-0.73 -0.559,-2.002 -0.973,-3.779l-0.03,-0.13c-0.371,-1.131 -0.108,-1.838 0.18,-2.228c0.243,-0.329 0.707,-0.708 1.573,-0.806c-0.013,-0.141 -0.029,-0.3 -0.051,-0.481c-0.33,-0.59 -0.473,-1.664 -0.473,-1.762c0,-6.503 5.789,-11.793 12.905,-11.793c7.115,0 12.904,5.29 12.904,11.793c0,0.016 -0.092,1.243 -0.445,1.867c-0.003,0.054 -0.006,0.125 -0.009,0.207c-0.002,0.055 -0.005,0.114 -0.008,0.175c0.827,0.088 1.501,0.423 1.893,0.953c0.29,0.392 0.564,1.074 0.227,2.105l-0.021,0.099c-0.414,1.777 -0.741,3.049 -0.973,3.779c-0.233,0.735 -0.651,1.215 -1.247,1.429c-0.001,0.859 -0.003,1.718 -0.011,2.578c-0.006,0.604 -0.246,1.458 -0.546,1.945c-1.057,1.72 -3.824,4.33 -6.378,6.03c-0.022,1.257 0.085,1.964 0.198,2.21c0.138,0.299 0.405,0.682 0.891,0.807c0.365,0.123 8.104,2.763 9.336,3.293c0.221,0.086 0.42,0.169 0.579,0.238c0.103,0.04 0.208,0.079 0.287,0.104c3.814,1.172 3.93,6.112 4.09,12.951l0.035,1.456c0.005,0.178 -0.086,0.344 -0.236,0.438c-5.992,3.712 -12.893,5.673 -19.96,5.673zM30.712,80.256c5.896,3.72 12.695,5.685 19.681,5.685c6.786,0 13.414,-1.857 19.188,-5.375l-0.028,-1.17c-0.155,-6.66 -0.258,-11.06 -3.384,-12.02c-0.001,0 -0.001,0 -0.002,0c-0.098,-0.03 -0.229,-0.077 -0.376,-0.136c-0.165,-0.072 -0.354,-0.149 -0.575,-0.237c-1.211,-0.521 -9.161,-3.231 -9.241,-3.259c-0.639,-0.164 -1.188,-0.646 -1.513,-1.346c-0.231,-0.503 -0.326,-1.484 -0.283,-2.918c0.005,-0.164 0.091,-0.315 0.229,-0.405c2.761,-1.789 5.415,-4.435 6.291,-5.86c0.208,-0.337 0.394,-1.006 0.397,-1.431c0.008,-0.877 0.01,-1.754 0.011,-2.631l0.001,-0.329c0.001,-0.249 0.185,-0.46 0.431,-0.494c0.323,-0.045 0.651,-0.179 0.862,-0.846c0.224,-0.705 0.544,-1.951 0.951,-3.703c0.028,-0.12 0.047,-0.188 0.048,-0.192c0.162,-0.493 0.135,-0.896 -0.082,-1.191c-0.275,-0.371 -0.857,-0.619 -1.608,-0.569c-0.147,0.027 -0.278,-0.056 -0.375,-0.158c-0.097,-0.104 -0.146,-0.244 -0.133,-0.385c0.018,-0.201 0.027,-0.453 0.036,-0.651c0.011,-0.261 0.021,-0.513 0.152,-0.667c0.104,-0.274 0.301,-0.961 0.301,-1.365c0,-5.951 -5.34,-10.793 -11.904,-10.793c-6.564,0 -11.906,4.84 -11.906,10.792c0,0.455 0.297,1.198 0.38,1.371c0.041,0.063 0.068,0.135 0.078,0.214c0.063,0.512 0.092,0.873 0.091,1.137c-0.001,0.134 -0.055,0.262 -0.15,0.355c-0.097,0.094 -0.236,0.119 -0.359,0.143c-0.629,-0.012 -1.074,0.139 -1.285,0.424c-0.268,0.362 -0.161,0.935 -0.023,1.352c-0.001,0 -0.001,0 -0.001,0c0,0 0.019,0.068 0.046,0.185c0.407,1.752 0.728,2.998 0.951,3.703c0.219,0.688 0.554,0.84 1.024,0.861c0.266,0.012 0.476,0.229 0.478,0.495c0.007,0.843 0.009,1.686 -0.027,2.527c-0.038,0.882 0.214,1.703 0.771,2.509c0.706,1.021 3.079,2.901 5.773,4.57c0.156,0.097 0.247,0.271 0.235,0.455c-0.062,1.01 -0.18,2.783 -0.282,3.328c-0.15,0.801 -0.927,1.343 -1.629,1.524l-7.706,2.573c-0.726,0.193 -1.354,0.5 -2.104,0.881c-1.709,0.869 -3.684,3.84 -3.43,13.047z"></path></g></g><g><path d="M66.164,61.602c-5.678,0.471 -11.272,3.175 -16.766,5.773c-5.271,-2.598 -10.638,-5.302 -16.086,-5.773l-1.613,3.154l1.613,24.177c4.654,0.264 9.374,1.502 14.154,3.623v1.844c0.645,-0.333 1.288,-0.641 1.931,-0.945c0.617,0.304 1.234,0.612 1.853,0.945v-1.774c5.037,-2.163 10.011,-3.425 14.913,-3.692l2.116,-24.177z" fill="#fddbbc"></path><path d="M51.251,94.898c-0.081,0 -0.163,-0.02 -0.237,-0.06c-0.541,-0.291 -1.081,-0.563 -1.62,-0.83c-0.565,0.268 -1.131,0.541 -1.697,0.834c-0.155,0.078 -0.341,0.074 -0.489,-0.018c-0.149,-0.091 -0.24,-0.252 -0.24,-0.427v-1.518c-4.676,-2.039 -9.278,-3.199 -13.683,-3.45c-0.252,-0.014 -0.454,-0.214 -0.471,-0.466l-1.614,-24.175c-0.006,-0.09 0.013,-0.181 0.054,-0.261l1.613,-3.153c0.093,-0.182 0.29,-0.278 0.488,-0.271c5.402,0.468 10.718,3.089 15.859,5.623l0.188,0.093l0.197,-0.093c5.357,-2.535 10.896,-5.156 16.522,-5.623c0.18,-0.021 0.355,0.068 0.456,0.22l2.115,3.153c0.063,0.095 0.093,0.208 0.083,0.322l-2.115,24.177c-0.021,0.247 -0.223,0.441 -0.471,0.455c-4.646,0.254 -9.503,1.439 -14.44,3.523v1.444c0,0.176 -0.093,0.339 -0.243,0.43c-0.077,0.048 -0.166,0.071 -0.255,0.071zM33.782,88.461c4.484,0.313 9.153,1.536 13.888,3.637c0.181,0.08 0.297,0.26 0.297,0.457v1.031c0.406,-0.2 0.813,-0.394 1.218,-0.585c0.139,-0.067 0.298,-0.063 0.435,0.004c0.377,0.186 0.754,0.373 1.132,0.566v-0.947c0,-0.2 0.119,-0.381 0.303,-0.459c4.997,-2.146 9.923,-3.392 14.649,-3.706l2.063,-23.572l-1.852,-2.761c-5.349,0.519 -10.703,3.052 -15.886,5.504l-0.416,0.197c-0.139,0.065 -0.299,0.063 -0.435,-0.004l-0.405,-0.199c-4.95,-2.441 -10.064,-4.963 -15.169,-5.492l-1.396,2.728z" fill="#472b29"></path><path d="M47.243,94.398c-5.575,-3.018 -11.062,-4.738 -16.453,-5.046v-25.227c5.583,0.486 11.075,2.081 16.453,5.046z" fill="#ea5167"></path><path d="M47.242,94.898c-0.082,0 -0.164,-0.021 -0.238,-0.061c-5.561,-3.011 -11.025,-4.688 -16.243,-4.986c-0.265,-0.015 -0.472,-0.234 -0.472,-0.499v-25.227c0,-0.14 0.059,-0.273 0.162,-0.368c0.103,-0.095 0.25,-0.138 0.381,-0.13c5.82,0.506 11.423,2.224 16.651,5.105c0.16,0.088 0.259,0.255 0.259,0.438v25.229c0,0.176 -0.093,0.34 -0.244,0.43c-0.079,0.046 -0.167,0.069 -0.256,0.069zM31.289,88.884c4.99,0.36 10.183,1.935 15.453,4.683v-24.1c-4.868,-2.641 -10.063,-4.251 -15.453,-4.793z" fill="#472b29"></path><g><path d="M52.042,94.398c5.575,-3.018 11.062,-4.738 16.453,-5.046v-25.227c-5.583,0.486 -11.075,2.081 -16.453,5.046z" fill="#ea5167"></path><path d="M52.042,94.898c-0.089,0 -0.177,-0.023 -0.256,-0.07c-0.151,-0.09 -0.244,-0.254 -0.244,-0.43v-25.228c0,-0.183 0.099,-0.35 0.259,-0.438c5.229,-2.882 10.831,-4.6 16.651,-5.105c0.13,-0.009 0.277,0.035 0.381,0.13c0.104,0.095 0.162,0.229 0.162,0.368v25.228c0,0.265 -0.207,0.484 -0.472,0.499c-5.218,0.298 -10.683,1.976 -16.243,4.986c-0.074,0.04 -0.156,0.06 -0.238,0.06zM52.542,69.467v24.1c5.271,-2.748 10.463,-4.322 15.453,-4.683v-24.21c-5.391,0.542 -10.585,2.152 -15.453,4.793z" fill="#472b29"></path></g><g><path d="M46.557,69.801h5.484v24.597h-5.484z" fill="#ea5167"></path><path d="M52.041,94.898h-5.484c-0.276,0 -0.5,-0.224 -0.5,-0.5v-24.597c0,-0.276 0.224,-0.5 0.5,-0.5h5.484c0.276,0 0.5,0.224 0.5,0.5v24.598c0,0.276 -0.224,0.499 -0.5,0.499zM47.057,93.898h4.484v-23.597h-4.484z" fill="#472b29"></path></g></g><g><path d="M32.447,78.825c-0.179,0 -0.358,-0.028 -0.535,-0.085c-0.604,-0.195 -1.12,-0.345 -1.566,-0.476c-0.384,-0.111 -0.717,-0.208 -1.011,-0.306c-0.512,-0.169 -0.796,-0.651 -0.708,-1.2c0.084,-0.52 0.539,-1.078 1.34,-1.078c0.104,0 0.214,0.01 0.33,0.03c0.074,0.019 1.437,0.366 2.688,1.136c0.773,0.477 0.72,1.012 0.66,1.22c-0.126,0.448 -0.62,0.759 -1.198,0.759z" fill="#895f3f"></path><path d="M29.966,75.931c0.09,0 0.186,0.008 0.287,0.026c0,0 1.369,0.344 2.601,1.103c1.059,0.652 0.487,1.516 -0.406,1.516c-0.146,0 -0.3,-0.023 -0.457,-0.074c-1.121,-0.361 -1.941,-0.57 -2.576,-0.78c-0.929,-0.307 -0.649,-1.791 0.551,-1.791M29.966,75.431v0c-0.947,0 -1.486,0.667 -1.586,1.288c-0.107,0.664 0.253,1.272 0.875,1.478c0.297,0.098 0.634,0.197 1.022,0.31c0.444,0.129 0.958,0.279 1.558,0.472c0.201,0.065 0.407,0.098 0.611,0.098c0.69,0 1.282,-0.387 1.439,-0.941c0.155,-0.548 -0.133,-1.109 -0.77,-1.501c-1.283,-0.789 -2.682,-1.147 -2.741,-1.162c-0.165,-0.031 -0.29,-0.042 -0.408,-0.042z" fill="#472b29"></path><path d="M30.07,75.318c-0.375,0 -0.887,-0.185 -1.519,-0.548c-0.562,-0.323 -0.818,-0.811 -0.687,-1.302c0.137,-0.513 0.671,-0.884 1.271,-0.884c0.146,0 0.292,0.021 0.436,0.063c0.619,0.179 0.817,0.204 0.992,0.227c0.149,0.019 0.277,0.035 0.577,0.125c0.524,0.156 0.822,0.638 0.74,1.197c-0.078,0.529 -0.535,1.1 -1.356,1.1c-0.066,0 -0.137,-0.004 -0.208,-0.012c-0.058,0.019 -0.138,0.034 -0.246,0.034z" fill="#895f3f"></path><path d="M29.136,72.834c0.118,0 0.241,0.017 0.366,0.053c1.131,0.328 0.927,0.16 1.567,0.351c0.947,0.283 0.694,1.807 -0.543,1.807c-0.077,0 -0.158,-0.006 -0.243,-0.019c0,0 -0.059,0.041 -0.213,0.041c-0.224,0 -0.651,-0.087 -1.393,-0.514c-1.116,-0.641 -0.489,-1.719 0.459,-1.719M29.136,72.334v0c-0.711,0 -1.347,0.45 -1.513,1.07c-0.162,0.608 0.138,1.2 0.804,1.583c0.67,0.385 1.223,0.581 1.643,0.581c0.107,0 0.196,-0.013 0.269,-0.031c0.064,0.006 0.127,0.009 0.187,0.009c0.969,0 1.51,-0.681 1.602,-1.313c0.099,-0.677 -0.278,-1.283 -0.916,-1.473c-0.318,-0.095 -0.47,-0.114 -0.616,-0.133c-0.166,-0.021 -0.354,-0.045 -0.955,-0.219c-0.166,-0.049 -0.336,-0.074 -0.505,-0.074z" fill="#472b29"></path><path d="M32.631,81.829c-0.179,0 -0.358,-0.028 -0.535,-0.085c-0.774,-0.25 -1.743,-0.575 -2.478,-0.821l-0.806,-0.27c-0.512,-0.169 -0.796,-0.652 -0.708,-1.201c0.084,-0.519 0.539,-1.077 1.339,-1.077c0.104,0 0.215,0.01 0.331,0.03c0.117,0.035 2.149,0.68 3.394,1.445c0.773,0.477 0.72,1.012 0.66,1.22c-0.126,0.448 -0.619,0.759 -1.197,0.759z" fill="#895f3f"></path><path d="M29.444,78.625c0.09,0 0.186,0.008 0.286,0.026c0,0 2.075,0.654 3.307,1.412c1.059,0.652 0.487,1.516 -0.406,1.516c-0.146,0 -0.3,-0.023 -0.457,-0.074c-1.121,-0.361 -2.647,-0.88 -3.282,-1.09c-0.929,-0.306 -0.648,-1.79 0.552,-1.79M29.444,78.125v0c-0.947,0 -1.486,0.668 -1.586,1.288c-0.107,0.664 0.253,1.272 0.876,1.478l0.783,0.262c0.738,0.248 1.719,0.577 2.503,0.829c0.201,0.065 0.407,0.098 0.611,0.098c0.69,0 1.282,-0.387 1.439,-0.941c0.155,-0.548 -0.133,-1.109 -0.77,-1.501c-1.27,-0.781 -3.331,-1.436 -3.418,-1.463l-0.031,-0.01l-0.032,-0.006c-0.132,-0.023 -0.257,-0.034 -0.375,-0.034z" fill="#472b29"></path><path d="M32.395,84.571c-0.162,0 -0.326,-0.026 -0.488,-0.078c-0.713,-0.23 -1.609,-0.531 -2.275,-0.755l-0.681,-0.228c-0.472,-0.156 -0.734,-0.602 -0.652,-1.107c0.076,-0.478 0.494,-0.991 1.229,-0.991c0.096,0 0.196,0.009 0.302,0.027c0.108,0.032 1.94,0.614 3.063,1.305c0.711,0.437 0.66,0.933 0.606,1.125c-0.118,0.413 -0.571,0.702 -1.104,0.702z" fill="#895f3f"></path><path d="M29.527,81.662c0.081,0 0.167,0.008 0.258,0.024c0,0 1.867,0.589 2.976,1.271c0.953,0.586 0.438,1.364 -0.366,1.364c-0.131,0 -0.27,-0.021 -0.412,-0.066c-1.009,-0.325 -2.383,-0.792 -2.954,-0.981c-0.834,-0.277 -0.581,-1.612 0.498,-1.612M29.527,81.162v0c-0.882,0 -1.383,0.623 -1.477,1.201c-0.1,0.622 0.238,1.192 0.822,1.385l0.698,0.233c0.665,0.223 1.552,0.521 2.26,0.749c0.186,0.06 0.376,0.091 0.565,0.091c0.643,0 1.196,-0.363 1.343,-0.884c0.055,-0.193 0.165,-0.865 -0.715,-1.406c-1.148,-0.707 -3.009,-1.298 -3.087,-1.322l-0.031,-0.01l-0.032,-0.006c-0.121,-0.021 -0.237,-0.031 -0.346,-0.031z" fill="#472b29"></path><g><path d="M67.635,78.825c-0.578,0 -1.071,-0.312 -1.197,-0.759c-0.06,-0.208 -0.113,-0.743 0.66,-1.22c1.251,-0.77 2.613,-1.117 2.67,-1.132c0.134,-0.024 0.243,-0.034 0.348,-0.034c0.801,0 1.256,0.559 1.34,1.078c0.088,0.549 -0.196,1.031 -0.708,1.2c-0.294,0.098 -0.627,0.194 -1.011,0.306c-0.446,0.131 -0.963,0.28 -1.566,0.476c-0.178,0.057 -0.358,0.085 -0.536,0.085z" fill="#895f3f"></path><path d="M70.116,75.931c1.2,0 1.48,1.484 0.553,1.791c-0.635,0.21 -1.455,0.419 -2.576,0.78c-0.157,0.051 -0.312,0.074 -0.457,0.074c-0.894,0 -1.465,-0.865 -0.406,-1.516c1.232,-0.758 2.601,-1.103 2.601,-1.103c0.099,-0.018 0.194,-0.026 0.285,-0.026M70.116,75.431c-0.118,0 -0.243,0.011 -0.374,0.034c-0.093,0.022 -1.492,0.38 -2.775,1.169c-0.637,0.392 -0.925,0.953 -0.77,1.501c0.157,0.554 0.748,0.941 1.439,0.941c0.204,0 0.409,-0.033 0.611,-0.098c0.6,-0.193 1.113,-0.343 1.558,-0.472c0.388,-0.113 0.725,-0.211 1.022,-0.31c0.623,-0.206 0.983,-0.814 0.876,-1.478c-0.102,-0.62 -0.64,-1.287 -1.587,-1.287z" fill="#472b29"></path></g><g><path d="M70.012,75.318c-0.107,0 -0.188,-0.016 -0.246,-0.034c-0.071,0.008 -0.142,0.012 -0.208,0.012v0c-0.822,0 -1.279,-0.57 -1.356,-1.1c-0.082,-0.56 0.216,-1.041 0.74,-1.197c0.3,-0.09 0.428,-0.106 0.577,-0.125c0.175,-0.022 0.373,-0.048 0.992,-0.227c0.144,-0.042 0.29,-0.063 0.436,-0.063c0.6,0 1.134,0.371 1.271,0.884c0.132,0.491 -0.125,0.979 -0.687,1.302c-0.634,0.364 -1.144,0.548 -1.519,0.548z" fill="#895f3f"></path><path d="M70.946,72.834c0.948,0 1.575,1.078 0.46,1.719c-0.743,0.427 -1.169,0.514 -1.393,0.514c-0.154,0 -0.213,-0.041 -0.213,-0.041c-0.085,0.013 -0.166,0.019 -0.243,0.019c-1.237,0 -1.491,-1.524 -0.543,-1.807c0.641,-0.191 0.436,-0.023 1.567,-0.351c0.124,-0.036 0.247,-0.053 0.365,-0.053M70.946,72.334c-0.169,0 -0.339,0.024 -0.505,0.073c-0.601,0.174 -0.789,0.198 -0.955,0.219c-0.146,0.019 -0.298,0.038 -0.616,0.133c-0.638,0.19 -1.015,0.796 -0.916,1.473c0.092,0.633 0.633,1.313 1.602,1.313c0.061,0 0.123,-0.003 0.187,-0.009c0.073,0.019 0.162,0.031 0.269,0.031c0.42,0 0.973,-0.196 1.643,-0.581c0.666,-0.383 0.966,-0.975 0.804,-1.583c-0.166,-0.619 -0.802,-1.069 -1.513,-1.069z" fill="#472b29"></path></g><g><path d="M67.451,81.829c-0.578,0 -1.071,-0.312 -1.197,-0.759c-0.06,-0.208 -0.113,-0.743 0.66,-1.22c1.243,-0.766 3.276,-1.41 3.362,-1.438c0.147,-0.028 0.258,-0.038 0.362,-0.038c0.8,0 1.255,0.559 1.339,1.077c0.088,0.549 -0.196,1.032 -0.708,1.201l-0.809,0.271c-0.734,0.246 -1.701,0.57 -2.475,0.82c-0.175,0.058 -0.355,0.086 -0.534,0.086z" fill="#895f3f"></path><path d="M70.638,78.625c1.2,0 1.48,1.484 0.553,1.791c-0.635,0.21 -2.161,0.729 -3.282,1.09c-0.157,0.051 -0.312,0.074 -0.457,0.074c-0.894,0 -1.466,-0.865 -0.406,-1.516c1.232,-0.758 3.306,-1.412 3.306,-1.412c0.1,-0.019 0.196,-0.027 0.286,-0.027M70.638,78.125c-0.118,0 -0.243,0.011 -0.374,0.034l-0.032,0.006l-0.031,0.01c-0.087,0.027 -2.148,0.682 -3.418,1.463c-0.637,0.392 -0.925,0.953 -0.77,1.501c0.157,0.554 0.748,0.941 1.439,0.941c0.204,0 0.409,-0.033 0.611,-0.098c0.784,-0.252 1.765,-0.582 2.503,-0.829l0.783,-0.262c0.623,-0.206 0.983,-0.814 0.876,-1.478c-0.101,-0.621 -0.64,-1.288 -1.587,-1.288z" fill="#472b29"></path></g><g><path d="M67.687,84.571c-0.532,0 -0.985,-0.289 -1.103,-0.702c-0.055,-0.192 -0.104,-0.688 0.605,-1.125c1.123,-0.69 2.955,-1.272 3.032,-1.297c0.137,-0.026 0.237,-0.035 0.333,-0.035c0.734,0 1.152,0.514 1.229,0.99c0.081,0.507 -0.182,0.952 -0.654,1.108l-0.68,0.228c-0.666,0.224 -1.563,0.524 -2.275,0.755c-0.161,0.052 -0.325,0.078 -0.487,0.078z" fill="#895f3f"></path><path d="M70.554,81.662c1.08,0 1.332,1.335 0.498,1.612c-0.571,0.189 -1.945,0.656 -2.954,0.981c-0.142,0.046 -0.28,0.066 -0.412,0.066c-0.804,0 -1.319,-0.778 -0.366,-1.364c1.109,-0.682 2.976,-1.271 2.976,-1.271c0.091,-0.017 0.177,-0.024 0.258,-0.024M70.554,81.162c-0.109,0 -0.224,0.01 -0.346,0.031l-0.032,0.006l-0.031,0.01c-0.079,0.025 -1.939,0.615 -3.088,1.322c-0.88,0.541 -0.77,1.213 -0.715,1.406c0.147,0.52 0.699,0.884 1.343,0.884c0.189,0 0.379,-0.031 0.565,-0.091c0.708,-0.228 1.594,-0.525 2.259,-0.749l0.699,-0.234c0.584,-0.193 0.922,-0.763 0.822,-1.385c-0.092,-0.578 -0.594,-1.2 -1.476,-1.2z" fill="#472b29"></path></g></g></g></g></svg>